<?xml version="1.0" standalone="no"?>
<!DOCTYPE svg PUBLIC "-//W3C//DTD SVG 20010904//EN"
 "http://www.w3.org/TR/2001/REC-SVG-20010904/DTD/svg10.dtd">
<svg version="1.0" xmlns="http://www.w3.org/2000/svg"
 width="700.000000pt" height="700.000000pt" viewBox="0 0 700.000000 700.000000"
 preserveAspectRatio="xMidYMid meet">
<metadata>
Created by potrace 1.14, written by Peter Selinger 2001-2017
</metadata>
<g transform="translate(0.000000,700.000000) scale(0.100000,-0.100000)"
fill="#000000" stroke="none">
<path d="M5765 6518 c142 -156 308 -454 389 -699 75 -225 81 -267 80 -564 -1
-474 -69 -949 -193 -1360 -72 -237 -46 -198 -446 -674 -417 -497 -352 -388
-535 -897 -118 -328 -194 -522 -246 -626 l-34 -67 -102 54 c-56 30 -104 58
-106 64 -2 5 13 47 33 93 79 178 174 422 329 848 l83 226 365 434 364 435 33
90 c83 230 162 555 197 815 22 159 25 561 6 700 -68 482 -263 879 -516 1048
-110 73 -194 97 -341 96 -103 -1 -132 -5 -205 -29 -241 -78 -475 -240 -761
-525 -292 -291 -320 -327 -1243 -1603 -646 -892 -736 -1021 -724 -1035 49 -63
202 -242 207 -242 3 0 24 26 46 57 53 74 456 606 609 803 465 599 938 1165
1205 1442 409 426 725 583 953 474 86 -41 122 -89 163 -220 19 -60 35 -113 35
-118 0 -4 -21 14 -47 41 -54 55 -95 71 -186 71 -70 0 -149 -26 -281 -91 -190
-96 -325 -199 -522 -400 -235 -241 -601 -671 -807 -948 -187 -252 -436 -577
-735 -959 -117 -150 -215 -279 -218 -286 -3 -8 44 -33 141 -73 l146 -61 83
102 c124 151 221 288 539 761 439 653 627 909 857 1170 354 400 694 618 977
628 l68 2 13 -70 c32 -182 25 -749 -14 -1095 -38 -341 -119 -681 -192 -804
-10 -17 -109 -146 -219 -286 l-201 -256 -212 -659 c-116 -362 -209 -664 -208
-671 2 -6 66 -63 143 -126 l140 -115 130 23 c71 13 133 24 136 24 3 0 162 218
354 485 192 266 350 483 351 482 2 -1 -66 -254 -150 -562 -84 -308 -156 -571
-159 -586 -5 -18 -22 -33 -67 -54 -33 -16 -60 -31 -60 -35 0 -3 79 -21 175
-40 l175 -34 31 30 c36 33 135 182 267 401 170 282 292 524 351 698 l31 90 30
560 29 560 51 125 c138 340 238 710 286 1060 22 159 25 561 6 700 -28 197 -96
419 -176 578 -140 279 -450 581 -651 637 -116 31 -114 33 -50 -37z"/>
<path d="M1147 1948 l-897 -1242 0 -228 0 -228 393 0 392 0 855 1182 c470 650
865 1196 877 1213 l21 32 -220 78 -220 78 -127 151 c-69 83 -137 163 -151 178
l-25 28 -898 -1242z"/>
</g>
</svg>
